<svg width="24" height="24" viewBox="0 0 24 24" fill="none" xmlns="http://www.w3.org/2000/svg">
<path d="M6.00014 14.5714H5.143C4.68834 14.5714 4.2523 14.3908 3.93081 14.0693C3.60932 13.7478 3.42871 13.3118 3.42871 12.8571V5.14284C3.42871 4.68819 3.60932 4.25215 3.93081 3.93066C4.2523 3.60917 4.68834 3.42856 5.143 3.42856H12.8573C13.3119 3.42856 13.748 3.60917 14.0695 3.93066C14.391 4.25215 14.5716 4.68819 14.5716 5.14284V5.99999M11.143 9.42856H18.8573C19.8041 9.42856 20.5716 10.1961 20.5716 11.1428V18.8571C20.5716 19.8039 19.8041 20.5714 18.8573 20.5714H11.143C10.1962 20.5714 9.42871 19.8039 9.42871 18.8571V11.1428C9.42871 10.1961 10.1962 9.42856 11.143 9.42856Z" stroke="#8217FF" stroke-width="1.3" stroke-linecap="round" stroke-linejoin="round"/>
</svg>
