<svg width="32" height="32" viewBox="0 0 32 32" fill="none" xmlns="http://www.w3.org/2000/svg">
<path d="M11.7144 7.42855H9.143C8.68834 7.42855 8.2523 7.60917 7.93081 7.93066C7.60932 8.25215 7.42871 8.68818 7.42871 9.14284V15.1428C7.42871 15.5975 7.60932 16.0335 7.93081 16.355C8.2523 16.6765 8.68834 16.8571 9.143 16.8571H11.7144M17.7144 18.5714V22C17.7144 22.682 17.4435 23.336 16.9613 23.8183C16.479 24.3005 15.825 24.5714 15.143 24.5714L11.7144 16.8571V7.42855H21.383C21.7964 7.42388 22.1976 7.56878 22.5126 7.83655C22.8277 8.10432 23.0353 8.47692 23.0973 8.8857L24.2801 16.6C24.3174 16.8457 24.3009 17.0965 24.2316 17.3352C24.1623 17.5738 24.0419 17.7946 23.8789 17.9821C23.7158 18.1696 23.5139 18.3195 23.2872 18.4212C23.0605 18.523 22.8143 18.5742 22.5659 18.5714H17.7144Z" stroke="#8217FF" stroke-width="1.3" stroke-linecap="round" stroke-linejoin="round"/>
</svg>
