<svg width="24" height="24" viewBox="0 0 24 24" fill="none" xmlns="http://www.w3.org/2000/svg">
<path d="M3.42871 5.13485V10.2777M3.42871 10.2777H8.57157M3.42871 10.2777L7.40585 6.54057C8.58949 5.35893 10.1251 4.59397 11.7813 4.36095C13.4375 4.12794 15.1245 4.43948 16.5883 5.24865C18.052 6.05782 19.2131 7.32078 19.8967 8.84722C20.5802 10.3737 20.7492 12.0809 20.378 13.7117C20.0069 15.3425 19.1159 16.8086 17.8391 17.8889C16.5623 18.9693 14.9691 19.6054 13.2993 19.7015C11.6296 19.7976 9.97383 19.3485 8.58156 18.4217C7.18928 17.495 6.13591 16.1409 5.58014 14.5634" stroke="#8217FF" stroke-width="1.3" stroke-linecap="round" stroke-linejoin="round"/>
</svg>
