<svg width="24" height="24" viewBox="0 0 24 24" fill="none" xmlns="http://www.w3.org/2000/svg">
<path d="M7.71442 3.42858H5.143C4.68834 3.42858 4.2523 3.6092 3.93081 3.93069C3.60932 4.25218 3.42871 4.68821 3.42871 5.14287V11.1429C3.42871 11.5975 3.60932 12.0336 3.93081 12.3551C4.2523 12.6765 4.68834 12.8572 5.143 12.8572H7.71442M13.7144 14.5714V18C13.7144 18.682 13.4435 19.3361 12.9613 19.8183C12.479 20.3005 11.825 20.5714 11.143 20.5714L7.71442 12.8572V3.42858H17.383C17.7964 3.42391 18.1976 3.56881 18.5126 3.83658C18.8277 4.10435 19.0353 4.47695 19.0973 4.88573L20.2801 12.6C20.3174 12.8457 20.3009 13.0966 20.2316 13.3352C20.1623 13.5739 20.0419 13.7946 19.8789 13.9821C19.7158 14.1697 19.5139 14.3195 19.2872 14.4213C19.0605 14.523 18.8143 14.5743 18.5659 14.5714H13.7144Z" stroke="#8217FF" stroke-width="1.3" stroke-linecap="round" stroke-linejoin="round"/>
</svg>
