<svg width="24" height="24" viewBox="0 0 24 24" fill="none" xmlns="http://www.w3.org/2000/svg">
<path d="M7.71442 20.5714H5.143C4.68834 20.5714 4.2523 20.3908 3.93081 20.0693C3.60932 19.7478 3.42871 19.3118 3.42871 18.8571V12.8571C3.42871 12.4025 3.60932 11.9664 3.93081 11.6449C4.2523 11.3235 4.68834 11.1428 5.143 11.1428H7.71442M13.7144 9.42856V5.99999C13.7144 5.318 13.4435 4.66395 12.9613 4.18171C12.479 3.69948 11.825 3.42856 11.143 3.42856L7.71442 11.1428V20.5714H17.383C17.7964 20.5761 18.1976 20.4312 18.5126 20.1634C18.8277 19.8957 19.0353 19.523 19.0973 19.1143L20.2801 11.4C20.3174 11.1543 20.3009 10.9034 20.2316 10.6648C20.1623 10.4261 20.0419 10.2054 19.8789 10.0179C19.7158 9.83033 19.5139 9.6805 19.2872 9.57874C19.0605 9.47699 18.8143 9.42574 18.5659 9.42856H13.7144Z" stroke="#8217FF" stroke-width="1.3" stroke-linecap="round" stroke-linejoin="round"/>
</svg>
